<?xml version="1.0" encoding="UTF-8" standalone="no"?>
<!-- Generator: Adobe Illustrator 18.1.0, SVG Export Plug-In . SVG Version: 6.00 Build 0)  -->

<svg
   xmlns:dc="http://purl.org/dc/elements/1.1/"
   xmlns:cc="http://creativecommons.org/ns#"
   xmlns:rdf="http://www.w3.org/1999/02/22-rdf-syntax-ns#"
   xmlns:svg="http://www.w3.org/2000/svg"
   xmlns="http://www.w3.org/2000/svg"
   xmlns:sodipodi="http://sodipodi.sourceforge.net/DTD/sodipodi-0.dtd"
   xmlns:inkscape="http://www.inkscape.org/namespaces/inkscape"
   version="1.1"
   id="Ebene_1"
   x="0px"
   y="0px"
   viewBox="1 360.5 263 40"
   enable-background="new 1 360.5 612 70.9"
   xml:space="preserve"
   inkscape:version="0.48.4 r"
   width="100%"
   height="100%"
   sodipodi:docname="menadwork-logo.svg"><metadata
     id="metadata99"><rdf:RDF><cc:Work
         rdf:about=""><dc:format>image/svg+xml</dc:format><dc:type
           rdf:resource="http://purl.org/dc/dcmitype/StillImage" /></cc:Work></rdf:RDF></metadata><defs
     id="defs97" /><sodipodi:namedview
     pagecolor="#ffffff"
     bordercolor="#666666"
     borderopacity="1"
     objecttolerance="10"
     gridtolerance="10"
     guidetolerance="10"
     inkscape:pageopacity="0"
     inkscape:pageshadow="2"
     inkscape:window-width="1920"
     inkscape:window-height="1027"
     id="namedview95"
     showgrid="false"
     inkscape:zoom="3.845182"
     inkscape:cx="194.77958"
     inkscape:cy="-8.7067279"
     inkscape:window-x="-4"
     inkscape:window-y="-4"
     inkscape:window-maximized="1"
     inkscape:current-layer="Ebene_1" /><g
     id="g3"
     transform="matrix(0.42778206,0,0,0.42778206,1.2718894,211.75197)"><g
       id="g5"><path
         d="m 151.7,400.6 h -7.6 l -0.2,-31.7 -19.4,26.3 -19.4,-26.7 v 0.5 31.7 h -7.6 v -38.6 h 11.4 l 15.9,21.8 15.9,-21.8 h 11.4 v 38.6 l -0.4,-0.1 0,0 z"
         id="path7"
         inkscape:connector-curvature="0" /><path
         d="M 206.6,400.6 H 165 V 362 h 40.2 v 6.9 h -32.6 v 8.3 h 22.7 v 6.9 h -22.7 v 9.7 h 34.1 v 6.8 l -0.1,0 0,0 z"
         id="path9"
         inkscape:connector-curvature="0" /><path
         d="m 261.2,400.6 h -11.4 l -26,-32.2 v 32.2 h -7.6 V 362 h 11.4 l 26.3,32.2 V 362 h 7.6 v 38.6 h -0.3 z"
         id="path11"
         inkscape:connector-curvature="0" /><path
         d="m 320.1,400.6 h -8.3 l -4.5,-8.3 h -26 l -4.5,8.3 h -8.3 L 289.6,362 h 9.5 l 21,38.6 z m -16.5,-15.1 -9.2,-17 -9.2,17 h 18.4 z"
         id="path13"
         inkscape:connector-curvature="0" /><path
         d="m 352.5,362.1 c 6.9,0 12.3,1.9 16.3,5.4 4,3.5 6.2,8 6.2,13.7 0,5 -2.1,9.9 -6.4,14.7 -1.2,1.4 -3.1,2.6 -5.7,3.5 -2.8,0.9 -5.9,1.7 -9,1.7 h -26.3 v -39 l 24.9,0 0,0 z m 1.9,31.7 c 3.8,0 6.6,-1.2 9,-3.5 2.4,-2.4 3.5,-5.2 3.5,-8.8 0,-3.8 -1.2,-6.9 -3.8,-9.2 -2.6,-2.4 -5.9,-3.5 -10.2,-3.5 h -18 v 25.1 l 19.5,-0.1 0,0 z"
         id="path15"
         inkscape:connector-curvature="0" /><path
         d="m 442.9,362.1 -13.2,38.6 h -9 l -9.2,-32.4 -9.2,32.4 h -9 L 380,362.1 h 8.3 l 9.2,32.2 9.2,-32.2 h 9 l 9.2,32.2 9.2,-32.2 c 0.1,0 8.8,0 8.8,0 z"
         id="path17"
         inkscape:connector-curvature="0" /><path
         d="m 499.4,381.2 c 0,6.4 -2.6,11.6 -8,15.4 -4.5,3.3 -10.4,5.2 -17.3,5.2 -6.9,0 -12.8,-1.7 -17.3,-5.2 -5.4,-4 -8,-9 -8,-15.4 0,-6.4 2.8,-11.4 8.3,-15.4 4.7,-3.5 10.6,-5.2 17.3,-5.2 6.7,0 12.5,1.7 17.3,5.2 4.9,4.2 7.7,9 7.7,15.4 z m -8,0 c 0,-4 -1.7,-7.3 -5,-9.9 -3.3,-2.6 -7.6,-3.8 -12.5,-3.8 -5.2,0 -9.5,1.4 -12.8,4 -3.3,2.6 -5,5.9 -5,9.9 0,4 1.7,7.3 5,9.9 3.3,2.6 7.6,3.8 12.8,3.8 5.2,0 9.5,-1.2 12.8,-3.8 3.3,-2.7 4.7,-6 4.7,-10.1 z"
         id="path19"
         inkscape:connector-curvature="0" /><path
         d="M 555.8,400.6 H 547 l -10.2,-14.2 h -19.2 v 14.2 H 510 V 362 h 31.2 c 4,0 7.3,1.2 9.7,3.3 2.4,2.1 3.5,5.2 3.5,9 0,6.4 -3.3,10.4 -9.7,11.8 l 11.1,14.5 z m -15.4,-21 c 4.5,0 6.9,-1.7 6.9,-5.2 0,-3.8 -2.4,-5.7 -7.3,-5.7 h -22.2 v 10.9 h 22.6 l 0,0 z"
         id="path21"
         inkscape:connector-curvature="0" /><path
         d="m 613,400.6 h -9.7 l -18.5,-19.6 -10.9,7.8 v 11.6 h -7.6 v -38.3 h 7.6 V 381 l 26.3,-18.9 h 11.1 L 590.5,377 613,400.6 z"
         id="path23"
         inkscape:connector-curvature="0" /></g><g
       id="g25"><path
         d="m 113.8,431 h -2.4 v -9.7 l -5.9,8 -5.9,-8 0,0 v 9.7 h -2.4 v -11.7 h 3.3 l 4.7,6.6 4.7,-6.6 h 3.5 v 11.6 h 0.4 v 0.1 z"
         id="path27"
         inkscape:connector-curvature="0" /><path
         d="m 131.3,427 c 0,1.2 -0.7,2.1 -1.9,3.1 -1.2,0.7 -2.8,1.2 -5,1.2 -2.1,0 -3.8,-0.5 -5,-1.2 -1.2,-0.7 -1.9,-1.9 -1.9,-3.1 v -7.8 h 2.4 v 7.3 c 0,1.7 1.4,2.6 4.5,2.6 3.1,0 4.5,-0.9 4.5,-2.6 v -7.3 h 2.4 v 7.8 l 0,0 z"
         id="path29"
         inkscape:connector-curvature="0" /><path
         d="m 146.5,431 h -11.4 v -11.7 h 2.4 v 9.7 h 9 v 2 z"
         id="path31"
         inkscape:connector-curvature="0" /><path
         d="m 160.9,421.2 h -5.7 v 9.7 h -2.4 v -9.7 h -5.7 v -2.1 h 13.5 v 2.1 h 0.3 z"
         id="path33"
         inkscape:connector-curvature="0" /><path
         d="m 165.7,431 h -2.4 v -11.7 h 2.4 V 431 z"
         id="path35"
         inkscape:connector-curvature="0" /><path
         d="m 183.6,422 -2.1,0.7 c -1.2,-1.2 -2.8,-1.9 -4.7,-1.9 -1.7,0 -3.1,0.5 -4,1.2 -0.9,0.7 -1.4,1.7 -1.4,3.1 0,1.2 0.5,2.4 1.4,3.1 0.9,0.7 2.4,1.2 4,1.2 1.9,0 3.5,-0.7 4.7,-1.9 l 1.9,0.9 c -1.7,1.9 -4,2.8 -6.9,2.8 -2.4,0 -4.3,-0.5 -5.7,-1.7 -1.4,-1.2 -2.1,-2.6 -2.1,-4.5 0,-1.9 0.7,-3.3 2.4,-4.7 1.4,-0.9 3.1,-1.7 5.2,-1.7 3.1,0.2 5.4,1.2 7.3,3.4 z"
         id="path37"
         inkscape:connector-curvature="0" /><path
         d="M 200.4,431 H 198 v -5 h -9 v 5 h -2.4 v -11.7 h 2.4 v 4.5 h 9 v -4.5 h 2.4 V 431 z"
         id="path39"
         inkscape:connector-curvature="0" /><path
         d="m 218.2,431 h -2.6 l -1.4,-2.6 h -7.8 L 205,431 h -2.6 l 6.4,-11.6 h 2.8 l 6.6,11.6 z m -5,-4.8 -2.8,-5.2 -2.8,5.2 h 5.6 z"
         id="path41"
         inkscape:connector-curvature="0" /><path
         d="m 234,431 h -3.3 l -8,-9.7 v 9.7 h -2.4 v -11.7 h 3.3 l 8,9.7 v -9.7 H 234 V 431 z"
         id="path43"
         inkscape:connector-curvature="0" /><path
         d="m 251.8,431 h -3.3 l -8,-9.7 V 431 H 238 v -11.7 h 3.3 l 8,9.7 v -9.7 h 2.4 v 11.6 h 0.1 v 0.1 z"
         id="path45"
         inkscape:connector-curvature="0" /><path
         d="m 268.3,431 h -12.5 v -11.7 h 12.1 v 2.1 H 258 v 2.6 h 6.9 v 2.1 H 258 v 3.1 h 10.4 v 1.7 h -0.1 v 0.1 z"
         id="path47"
         inkscape:connector-curvature="0" /><path
         d="m 282.5,431 h -11.4 v -11.7 h 2.4 v 9.7 h 9 v 2 z"
         id="path49"
         inkscape:connector-curvature="0" /><path
         d="m 314.7,431 h -2.4 v -9.7 l -5.9,8 -5.9,-8 0,0 v 9.7 h -2.4 v -11.7 h 3.3 l 4.7,6.6 4.7,-6.6 h 3.5 v 11.6 h 0.4 v 0.1 z"
         id="path51"
         inkscape:connector-curvature="0" /><path
         d="m 332.4,431 h -2.6 l -1.4,-2.6 h -7.8 l -1.4,2.6 h -2.6 l 6.4,-11.7 h 2.8 l 6.6,11.7 z m -4.9,-4.8 -2.8,-5.2 -2.8,5.2 h 5.6 z"
         id="path53"
         inkscape:connector-curvature="0" /><path
         d="m 348.5,431 h -2.6 l -3.1,-4.3 h -5.9 v 4.3 h -2.4 v -11.7 h 9.5 c 1.2,0 2.1,0.2 3.1,0.9 0.7,0.7 1.2,1.7 1.2,2.6 0,1.9 -0.9,3.1 -2.8,3.5 l 3,4.7 z m -4.7,-6.5 c 1.4,0 2.1,-0.5 2.1,-1.7 0,-1.2 -0.7,-1.7 -2.1,-1.7 h -6.9 v 3.3 h 6.9 v 0.1 z"
         id="path55"
         inkscape:connector-curvature="0" /><path
         d="M 365.8,431 H 363 l -5.7,-5.9 -3.3,2.4 v 3.5 h -2.4 v -11.7 h 2.4 v 5.7 l 8,-5.7 h 3.3 l -6.2,4.5 6.7,7.2 z"
         id="path57"
         inkscape:connector-curvature="0" /><path
         d="M 380.5,431 H 368 v -11.7 h 12 v 2.1 h -10 v 2.6 h 6.9 v 2.1 H 370 v 3.1 h 10.4 v 1.7 h 0.1 v 0.1 z"
         id="path59"
         inkscape:connector-curvature="0" /><path
         d="m 397,431 h -3.3 l -8,-9.7 v 9.7 h -2.4 v -11.7 h 3.3 l 8,9.7 v -9.7 H 397 V 431 z"
         id="path61"
         inkscape:connector-curvature="0" /><path
         d="m 426.6,431 h -2.8 l -5.7,-5.9 -3.3,2.4 v 3.5 h -2.4 v -11.7 h 2.4 v 5.7 l 8,-5.7 h 3.3 l -6.2,4.5 6.7,7.2 z"
         id="path63"
         inkscape:connector-curvature="0" /><path
         d="m 443.1,425.1 c 0,1.9 -0.7,3.5 -2.4,4.7 -1.4,0.9 -3.1,1.7 -5.2,1.7 -2.1,0 -3.8,-0.5 -5.2,-1.7 -1.7,-1.2 -2.4,-2.8 -2.4,-4.7 0,-1.9 0.7,-3.5 2.4,-4.7 1.4,-0.9 3.1,-1.7 5.2,-1.7 2.1,0 3.8,0.5 5.2,1.7 1.7,1.1 2.4,2.7 2.4,4.7 z m -2.3,0 c 0,-1.2 -0.5,-2.1 -1.4,-3.1 -0.9,-0.7 -2.4,-1.2 -3.8,-1.2 -1.7,0 -2.8,0.5 -3.8,1.2 -0.9,0.7 -1.4,1.9 -1.4,3.1 0,1.2 0.5,2.4 1.4,3.1 0.9,0.7 2.4,1.2 3.8,1.2 1.7,0 2.8,-0.5 3.8,-1.2 0.9,-1.1 1.4,-2 1.4,-3.1 z"
         id="path65"
         inkscape:connector-curvature="0" /><path
         d="m 462.8,431 h -2.4 v -9.7 l -5.9,8 -5.9,-8 0,0 v 9.7 h -2.4 v -11.7 h 3.3 l 4.7,6.6 4.7,-6.6 h 3.5 v 11.6 h 0.4 v 0.1 z"
         id="path67"
         inkscape:connector-curvature="0" /><path
         d="M 483.4,431 H 481 v -9.7 l -5.9,8 -5.9,-8 0,0 v 9.7 h -2.4 v -11.7 h 3.3 l 4.7,6.6 4.7,-6.6 h 3.5 v 11.6 h 0.4 v 0.1 z"
         id="path69"
         inkscape:connector-curvature="0" /><path
         d="m 500.6,427 c 0,1.2 -0.7,2.1 -1.9,3.1 -1.2,0.7 -2.8,1.2 -5,1.2 -2.1,0 -3.8,-0.5 -5,-1.2 -1.2,-0.7 -1.9,-1.9 -1.9,-3.1 v -7.8 h 2.4 v 7.3 c 0,1.7 1.4,2.6 4.5,2.6 3.1,0 4.5,-0.9 4.5,-2.6 v -7.3 h 2.4 v 7.8 l 0,0 z"
         id="path71"
         inkscape:connector-curvature="0" /><path
         d="m 518.1,431 h -3.3 l -8,-9.7 v 9.7 h -2.4 v -11.7 h 3.3 l 8,9.7 v -9.7 h 2.4 V 431 z"
         id="path73"
         inkscape:connector-curvature="0" /><path
         d="m 524.5,431 h -2.4 v -11.7 h 2.4 V 431 z"
         id="path75"
         inkscape:connector-curvature="0" /><path
         d="m 542.5,431 h -2.8 l -5.7,-5.9 -3.3,2.4 v 3.5 h -2.4 v -11.7 h 2.4 v 5.7 l 8,-5.7 h 3.3 l -6.2,4.5 6.7,7.2 z"
         id="path77"
         inkscape:connector-curvature="0" /><path
         d="m 560,431 h -2.6 l -1.4,-2.7 h -7.8 l -1.4,2.6 h -2.6 l 6.4,-11.6 h 2.8 L 560,431 z m -5,-4.8 -2.8,-5.2 -2.8,5.2 h 5.6 z"
         id="path79"
         inkscape:connector-curvature="0" /><path
         d="m 572.5,421.2 h -5.7 v 9.7 h -2.4 v -9.7 h -5.7 v -2.1 h 13.5 v 2.1 h 0.3 z"
         id="path81"
         inkscape:connector-curvature="0" /><path
         d="m 577.3,431 h -2.4 v -11.7 h 2.4 V 431 z"
         id="path83"
         inkscape:connector-curvature="0" /><path
         d="m 596,425.1 c 0,1.9 -0.7,3.5 -2.4,4.7 -1.4,0.9 -3.1,1.7 -5.2,1.7 -2.1,0 -3.8,-0.5 -5.2,-1.7 -1.7,-1.2 -2.4,-2.8 -2.4,-4.7 0,-1.9 0.7,-3.5 2.4,-4.7 1.4,-0.9 3.1,-1.7 5.2,-1.7 2.1,0 3.8,0.5 5.2,1.7 1.7,1.1 2.4,2.7 2.4,4.7 z m -2.4,0 c 0,-1.2 -0.5,-2.1 -1.4,-3.1 -0.9,-0.7 -2.4,-1.2 -3.8,-1.2 -1.7,0 -2.8,0.5 -3.8,1.2 -0.9,0.7 -1.4,1.9 -1.4,3.1 0,1.2 0.5,2.4 1.4,3.1 0.9,0.7 2.4,1.2 3.8,1.2 1.7,0 2.8,-0.5 3.8,-1.2 0.9,-1.1 1.4,-2 1.4,-3.1 z"
         id="path85"
         inkscape:connector-curvature="0" /><path
         d="m 612.8,431 h -3.3 l -8,-9.7 V 431 H 599 v -11.7 h 3.3 l 8,9.7 v -9.7 h 2.4 l 0.1,11.7 0,0 z"
         id="path87"
         inkscape:connector-curvature="0" /></g><rect
       x="288"
       y="422.5"
       width="5.4000001"
       height="5.4000001"
       id="rect89" /><rect
       x="402.20001"
       y="422.5"
       width="5.4000001"
       height="5.4000001"
       id="rect91" /></g><path
     d="m 1.6996715,366.52352 v 29.43141 H 31.131078 V 366.52352 H 1.6996715 l 0,0 z m 7.486186,21.51744 c 0,0.89834 -0.7272294,1.71113 -1.7111281,1.71113 -0.8983424,0 -1.7111283,-0.72723 -1.7111283,-1.71113 v -13.3468 c 0,-0.89834 0.7272295,-1.71113 1.7111283,-1.71113 0.8983423,0 1.7111281,0.72723 1.7111281,1.71113 v 13.3468 z m 9.3256495,-2.48114 c 0,1.11224 -0.898342,2.01058 -2.010576,2.01058 -1.112233,0 -2.010575,-0.89834 -2.010575,-2.01058 v -6.16006 c 0,-1.11223 0.898342,-2.01058 2.010575,-2.01058 1.112234,0 2.010576,0.89835 2.010576,2.01058 v 6.16006 z m 8.59842,2.48114 c 0,0.89834 -0.72723,1.71113 -1.711129,1.71113 -0.898342,0 -1.711128,-0.72723 -1.711128,-1.71113 v -13.3468 c 0,-0.89834 0.72723,-1.71113 1.711128,-1.71113 0.898343,0 1.711129,0.72723 1.711129,1.71113 v 13.3468 z"
     id="path93"
     inkscape:connector-curvature="0" /></svg>